<?xml version="1.0" standalone="no"?>
<!DOCTYPE svg PUBLIC "-//W3C//DTD SVG 20010904//EN"
 "http://www.w3.org/TR/2001/REC-SVG-20010904/DTD/svg10.dtd">
<svg version="1.0" xmlns="http://www.w3.org/2000/svg"
 width="254.000000pt" height="184.000000pt" viewBox="0 0 254.000000 184.000000"
 preserveAspectRatio="xMidYMid meet">

<g transform="translate(0.000000,184.000000) scale(0.100000,-0.100000)"
fill="#000000" stroke="none">
<path d="M1962 1113 l-33 -4 6 -132 c5 -89 11 -135 20 -142 20 -16 120 -4 120
15 0 10 -13 16 -41 18 -39 3 -42 6 -47 35 -6 40 -2 47 26 47 29 0 51 15 43 29
-4 6 -23 11 -42 11 -34 0 -34 0 -34 45 l0 45 40 0 c33 0 40 3 40 20 0 21 -15
23 -98 13z"/>
<path d="M1741 1086 c-8 -10 -9 -44 -1 -127 5 -63 10 -122 10 -131 0 -11 8
-18 20 -18 17 0 20 7 20 40 0 30 5 42 18 46 66 20 91 60 78 129 -10 52 -37 75
-90 75 -25 0 -48 -6 -55 -14z m88 -40 c7 -8 11 -34 9 -58 -2 -35 -7 -44 -24
-46 -24 -3 -34 19 -34 81 0 30 4 37 19 37 10 0 24 -6 30 -14z"/>
<path d="M1580 1073 c0 -4 -9 -60 -20 -123 -25 -145 -25 -160 -1 -160 13 0 20
9 25 30 4 25 10 30 34 30 21 0 32 -7 40 -25 15 -32 42 -33 41 -2 0 12 -19 74
-42 137 -29 80 -47 116 -60 118 -9 2 -17 0 -17 -5z m50 -166 c0 -12 -6 -17
-17 -15 -9 2 -16 6 -15 11 1 4 2 24 3 45 l1 37 13 -30 c8 -16 14 -38 15 -48z"/>
<path d="M940 1021 c-51 -5 -66 -10 -68 -23 -3 -14 3 -18 26 -18 35 0 41 -16
43 -100 1 -96 12 -144 33 -148 17 -4 18 3 15 125 l-4 128 28 3 c20 3 27 8 25
20 -4 20 -12 21 -98 13z"/>
<path d="M1312 998 c-29 -38 -24 -146 9 -179 26 -26 64 -24 83 3 20 28 21 108
2 153 -13 30 -20 35 -49 35 -19 0 -39 -6 -45 -12z m72 -71 c10 -56 2 -97 -19
-97 -20 0 -35 41 -35 94 0 47 6 58 29 54 10 -2 19 -21 25 -51z"/>
<path d="M699 968 c-17 -28 -20 -44 -15 -106 7 -117 56 -172 123 -140 43 21
60 80 46 163 -16 94 -32 115 -88 115 -40 0 -48 -4 -66 -32z m91 -23 c6 -8 14
-50 17 -94 5 -71 4 -80 -14 -89 -26 -14 -41 -3 -53 39 -11 38 -13 119 -4 143
8 20 38 21 54 1z"/>
<path d="M1159 974 c-14 -38 -3 -61 42 -90 26 -16 39 -31 37 -42 -4 -21 -38
-29 -38 -8 0 20 -19 31 -33 17 -7 -7 -7 -18 1 -36 9 -20 19 -25 47 -25 67 0
74 80 11 119 -39 25 -52 49 -31 57 9 4 23 -4 34 -17 17 -21 20 -22 26 -7 12
30 -12 58 -51 58 -28 0 -36 -5 -45 -26z"/>
<path d="M587 983 c-4 -3 -4 -43 -1 -87 l6 -81 -48 83 c-65 112 -80 109 -76
-16 5 -134 14 -187 32 -187 12 0 15 16 15 82 -1 45 1 80 4 78 2 -3 23 -38 45
-77 24 -43 49 -74 60 -76 18 -4 19 2 12 127 -4 72 -9 138 -12 146 -6 16 -26
20 -37 8z"/>
</g>
</svg>
