<?xml version="1.0" standalone="no"?>
<!DOCTYPE svg PUBLIC "-//W3C//DTD SVG 20010904//EN"
 "http://www.w3.org/TR/2001/REC-SVG-20010904/DTD/svg10.dtd">
<svg version="1.0" xmlns="http://www.w3.org/2000/svg"
 width="180.000000pt" height="197.000000pt" viewBox="0 0 180.000000 197.000000"
 preserveAspectRatio="xMidYMid meet">

<g transform="translate(0.000000,197.000000) scale(0.100000,-0.100000)"
fill="#000000" stroke="none">
<path d="M691 1954 c-30 -8 -75 -25 -100 -39 -25 -13 -66 -29 -91 -36 -130
-33 -227 -143 -261 -296 -9 -41 -17 -53 -31 -53 -21 0 -24 -25 -4 -37 9 -6 15
-41 19 -123 3 -67 14 -148 26 -195 47 -180 161 -354 254 -390 48 -18 104 -10
186 26 24 10 46 17 49 15 10 -11 -8 -35 -30 -38 -51 -7 -75 -161 -33 -208 27
-29 40 -25 68 22 l25 42 12 -57 c6 -33 17 -57 24 -57 7 0 23 23 36 50 13 28
26 50 30 50 4 0 18 -27 33 -60 23 -54 28 -60 56 -60 84 0 198 73 241 152 l23
44 -20 60 c-14 42 -25 59 -37 58 -14 -2 -16 10 -16 75 0 104 9 153 27 147 9
-4 21 12 37 48 13 30 43 82 66 116 39 58 90 165 90 190 0 8 -15 9 -44 5 -26
-4 -46 -3 -50 3 -7 11 7 17 68 28 l38 7 -4 97 c-3 89 -7 104 -43 176 -46 94
-131 184 -202 215 -79 35 -346 49 -442 23z m62 -109 c78 -20 130 -48 177 -95
67 -67 110 -174 110 -277 l0 -53 -35 0 c-24 0 -35 -5 -35 -15 0 -10 11 -15 35
-15 34 0 35 -1 35 -38 0 -92 -58 -240 -129 -330 -76 -96 -235 -195 -335 -208
-54 -8 -90 10 -146 73 -101 114 -169 313 -171 499 -1 70 1 87 16 97 15 12 15
15 2 25 -29 25 18 169 79 242 80 95 246 135 397 95z m402 -445 c-3 -5 -22 -10
-41 -10 -19 0 -34 5 -34 10 0 6 18 10 41 10 24 0 38 -4 34 -10z m93 -3 c19
-23 24 -64 12 -108 -14 -50 -76 -119 -108 -119 -26 0 -37 -16 -18 -27 13 -7
13 -20 0 -103 -7 -52 -14 -129 -14 -172 0 -74 -1 -77 -32 -104 -44 -37 -131
-76 -184 -82 -38 -4 -45 -9 -65 -48 -13 -23 -26 -41 -30 -38 -4 2 -10 23 -14
47 -4 23 -15 49 -25 57 -14 12 -17 26 -12 78 4 57 7 65 31 74 84 34 136 64
181 105 35 31 48 49 41 56 -7 7 -24 -3 -54 -30 -77 -71 -93 -69 -31 3 63 75
115 178 135 267 8 40 16 54 23 47 19 -19 35 -10 62 38 40 70 76 91 102 59z
m-68 -646 c10 -32 10 -46 0 -70 -26 -63 -139 -140 -206 -141 -27 0 -32 5 -52
51 -24 57 -22 69 12 69 32 0 135 53 182 94 21 20 42 35 45 36 3 0 12 -18 19
-39z m-452 -120 c-29 -49 -48 -40 -48 25 0 72 8 81 43 46 l29 -30 -24 -41z"/>
<path d="M339 1461 c-24 -24 -29 -38 -29 -76 0 -83 54 -156 149 -198 58 -26
66 -16 66 86 0 97 -28 167 -79 198 -43 27 -73 24 -107 -10z m106 -35 c29 -29
45 -84 45 -153 0 -63 -9 -66 -69 -22 -42 30 -80 94 -81 134 0 32 28 65 56 65
14 0 36 -11 49 -24z"/>
<path d="M745 1444 c-79 -40 -131 -123 -142 -224 l-6 -60 55 0 c118 0 231 64
259 147 34 104 -68 188 -166 137z m110 -39 c73 -72 -19 -189 -167 -210 -47 -7
-48 -7 -48 20 0 75 56 166 122 198 45 23 65 21 93 -8z"/>
<path d="M870 1195 c-17 -19 -21 -28 -13 -36 9 -9 20 -5 42 12 16 13 29 29 27
34 -5 20 -32 15 -56 -10z"/>
<path d="M483 1067 c-11 -18 19 -31 82 -35 53 -4 65 -1 65 10 0 11 -19 18 -71
25 -41 5 -72 6 -76 0z"/>
<path d="M1181 1324 c-22 -28 -27 -49 -12 -58 5 -3 14 8 21 24 7 16 21 32 31
35 25 8 24 25 0 25 -11 0 -29 -12 -40 -26z"/>
<path d="M1703 473 c-28 -2 -56 -9 -61 -16 -10 -11 1 -265 13 -294 5 -15 112
-18 134 -4 28 18 4 41 -43 41 -42 0 -44 1 -50 35 -9 44 -2 55 33 55 15 0 32 5
39 12 18 18 -5 38 -38 32 -33 -7 -37 -2 -41 51 l-4 40 45 5 c36 4 45 9 45 24
0 22 -3 23 -72 19z"/>
<path d="M1422 438 c-7 -9 -6 -60 2 -158 11 -139 12 -145 34 -148 20 -3 22 0
22 47 0 46 2 51 23 51 77 0 117 140 56 201 -22 22 -120 27 -137 7z m106 -61
c17 -35 7 -84 -20 -98 -29 -15 -38 3 -38 74 0 55 1 58 22 55 13 -2 29 -15 36
-31z"/>
<path d="M1246 413 c-8 -28 -46 -258 -46 -282 0 -36 38 -27 48 12 7 26 14 33
39 35 25 3 32 -2 43 -27 13 -33 37 -41 46 -17 9 24 -88 290 -108 294 -9 2 -19
-5 -22 -15z m49 -155 c7 -34 5 -38 -14 -38 -23 0 -26 14 -15 70 8 37 18 26 29
-32z"/>
<path d="M490 361 c-22 -4 -35 -12 -35 -21 0 -10 13 -17 35 -20 l35 -5 12
-130 c6 -72 12 -131 12 -132 1 -2 10 -3 22 -3 20 0 20 4 17 138 l-3 137 28 3
c19 2 27 9 27 23 0 17 -7 19 -57 18 -32 -1 -74 -4 -93 -8z"/>
<path d="M950 340 c-25 -25 -28 -135 -5 -180 27 -52 95 -48 115 6 19 50 5 148
-26 179 -21 21 -60 19 -84 -5z m68 -41 c7 -13 11 -49 10 -79 -3 -48 -6 -55
-25 -58 -23 -3 -27 5 -38 73 -7 46 9 99 28 93 6 -3 18 -15 25 -29z"/>
<path d="M279 321 c-27 -27 -29 -35 -29 -103 0 -134 29 -188 100 -188 49 0 76
24 86 76 9 50 -2 157 -21 193 -30 59 -90 68 -136 22z m90 -39 c17 -32 25 -166
12 -191 -19 -34 -53 -24 -68 19 -16 46 -16 163 -1 178 18 18 46 15 57 -6z"/>
<path d="M803 340 c-25 -10 -38 -48 -28 -80 4 -11 25 -32 46 -46 30 -18 39
-31 37 -46 -4 -31 -26 -34 -38 -4 -5 14 -14 26 -20 26 -17 0 -23 -30 -12 -56
23 -49 112 -22 112 35 0 34 -16 56 -55 80 -22 12 -35 28 -35 41 0 27 24 26 43
-2 11 -17 18 -20 26 -12 13 12 -2 64 -18 64 -5 0 -15 2 -23 4 -7 3 -23 1 -35
-4z"/>
<path d="M138 318 c-3 -7 -1 -49 3 -93 4 -44 6 -81 5 -83 -2 -1 -25 36 -52 84
-26 47 -54 89 -62 91 -30 12 -34 -13 -22 -148 13 -156 16 -171 38 -167 15 3
17 17 14 98 l-2 95 45 -80 c59 -102 70 -114 89 -95 11 13 11 39 0 160 -7 80
-13 146 -13 148 -3 8 -40 0 -43 -10z"/>
</g>
</svg>
